<svg xmlns="http://www.w3.org/2000/svg" width="42" height="42" fill="none"><g clip-path="url(#a)"><path fill="url(#b)" d="M12.002 2a2 2 0 0 0-4 0v2a2 2 0 0 0 4 0V2Z"/><path fill="url(#c)" d="M34.002 2a2 2 0 0 0-4 0v2a2 2 0 1 0 4 0V2Z"/><path fill="url(#d)" d="M1.001 15v23a4 4 0 0 0 4 4h32a4 4 0 0 0 4-4V15h-40Zm12 20a2 2 0 0 1-2 2h-2a2 2 0 0 1-2-2v-2a2 2 0 0 1 2-2h2a2 2 0 0 1 2 2v2Zm0-11a2 2 0 0 1-2 2h-2a2 2 0 0 1-2-2v-2a2 2 0 0 1 2-2h2a2 2 0 0 1 2 2v2Zm11 11a2 2 0 0 1-2 2h-2a2 2 0 0 1-2-2v-2a2 2 0 0 1 2-2h2a2 2 0 0 1 2 2v2Zm0-11a2 2 0 0 1-2 2h-2a2 2 0 0 1-2-2v-2a2 2 0 0 1 2-2h2a2 2 0 0 1 2 2v2Zm11 11a2 2 0 0 1-2 2h-2a2 2 0 0 1-2-2v-2a2 2 0 0 1 2-2h2a2 2 0 0 1 2 2v2Zm0-11a2 2 0 0 1-2 2h-2a2 2 0 0 1-2-2v-2a2 2 0 0 1 2-2h2a2 2 0 0 1 2 2v2Zm6-11V7a4 4 0 0 0-4-4h-1v1c0 2.206-1.793 4-4 4-2.205 0-4-1.794-4-4V3h-14v1c0 2.206-1.793 4-4 4-2.206 0-4-1.794-4-4V3h-1a4 4 0 0 0-4 4v6h40Z"/></g><defs><radialGradient id="b" cx="0" cy="0" r="1" gradientTransform="rotate(-29.978 60.378 5.583) scale(41.7784 34.4347)" gradientUnits="userSpaceOnUse"><stop stop-color="#FED09C"/><stop offset=".795" stop-color="#FCF1E3"/></radialGradient><radialGradient id="c" cx="0" cy="0" r="1" gradientTransform="rotate(-29.978 60.378 5.583) scale(41.7784 34.4347)" gradientUnits="userSpaceOnUse"><stop stop-color="#FED09C"/><stop offset=".795" stop-color="#FCF1E3"/></radialGradient><radialGradient id="d" cx="0" cy="0" r="1" gradientTransform="rotate(-29.978 60.378 5.583) scale(41.7784 34.4347)" gradientUnits="userSpaceOnUse"><stop stop-color="#FED09C"/><stop offset=".795" stop-color="#FCF1E3"/></radialGradient><clipPath id="a"><path fill="#fff" d="M0 0h42v42H0z" transform="translate(.001)"/></clipPath></defs></svg>