<svg xmlns="http://www.w3.org/2000/svg" width="42" height="42" fill="none"><g clip-path="url(#a)"><path fill="url(#b)" d="M4.171 36.6v-.51L.361 39.9a1.23 1.23 0 1 0 1.74 1.74l3.81-3.81h-.51c-.679 0-1.23-.55-1.23-1.23Z"/><path fill="url(#c)" d="M41.681.403A1.23 1.23 0 0 0 40.57.017c-.126.02-3.133.533-7.316 2.21-3.854 1.544-9.48 4.417-14.394 9.331l-.563.563v4.818a1.23 1.23 0 0 1-2.46 0v-2.357l-3.295 3.294a14.404 14.404 0 0 0-3.586 5.983l-2.323 7.654V30.12a1.23 1.23 0 1 0-2.46 0v5.97L24.05 16.212a1.23 1.23 0 0 1 1.74 1.74L5.911 37.831h5.971a1.23 1.23 0 0 0 0-2.462h-1.395l7.655-2.322a14.404 14.404 0 0 0 5.983-3.587l.282-.282h-3.113a1.23 1.23 0 0 1 0-2.461h5.574l3.575-3.575c2.293-2.293 4.448-5.3 6.403-8.938a1.231 1.231 0 0 0-1.084-1.813h-1.656l4.84-3.063a1.23 1.23 0 0 0 .477-.566c1.686-4.043 2.503-7.087 2.537-7.215A1.23 1.23 0 0 0 41.68.403Z"/></g><defs><radialGradient id="b" cx="0" cy="0" r="1" gradientTransform="matrix(37.99861 -20.87532 16.77597 30.5367 4.502 30.916)" gradientUnits="userSpaceOnUse"><stop stop-color="#FED09C"/><stop offset=".795" stop-color="#FCF1E3"/></radialGradient><radialGradient id="c" cx="0" cy="0" r="1" gradientTransform="matrix(37.99861 -20.87532 16.77597 30.5367 4.502 30.916)" gradientUnits="userSpaceOnUse"><stop stop-color="#FED09C"/><stop offset=".795" stop-color="#FCF1E3"/></radialGradient><clipPath id="a"><path fill="#fff" d="M0 0h42v42H0z" transform="translate(.001)"/></clipPath></defs></svg>