<svg xmlns="http://www.w3.org/2000/svg" width="42" height="42" fill="none"><g clip-path="url(#a)"><path fill="url(#b)" d="M40.321 5H1.681c-.924 0-1.68.756-1.68 1.68v28.84c0 .924.747 1.68 1.68 1.68h38.64c.925 0 1.68-.756 1.68-1.68V6.68c0-.924-.746-1.68-1.68-1.68Zm-32.2 29.288c0 .616-.504 1.12-1.12 1.12h-3.36c-.616 0-1.12-.504-1.12-1.12v-3.36c0-.616.504-1.12 1.12-1.12h3.36c.616 0 1.12.504 1.12 1.12v3.36Zm0-7.56c0 .616-.504 1.12-1.12 1.12h-3.36c-.616 0-1.12-.504-1.12-1.12v-3.36c0-.616.504-1.12 1.12-1.12h3.36c.616 0 1.12.504 1.12 1.12v3.36Zm0-7.588c0 .616-.504 1.12-1.12 1.12h-3.36c-.616 0-1.12-.504-1.12-1.12v-3.36c0-.616.504-1.12 1.12-1.12h3.36c.616 0 1.12.504 1.12 1.12v3.36Zm0-7.56c0 .616-.504 1.12-1.12 1.12h-3.36c-.616 0-1.12-.504-1.12-1.12V8.22c0-.616.504-1.12 1.12-1.12h3.36c.616 0 1.12.504 1.12 1.12v3.36Zm22.54 22.717c0 .84-.68 1.512-1.512 1.512H12.573c-.83 0-1.511-.681-1.511-1.512V23.312c0-.84.68-1.512 1.511-1.512H29.15c.831 0 1.512.681 1.512 1.512v10.985Zm0-15.4c0 .84-.68 1.512-1.512 1.512H12.573c-.83 0-1.511-.681-1.511-1.512V7.912c0-.84.68-1.512 1.511-1.512H29.15c.831 0 1.512.681 1.512 1.512v10.985Zm8.54 15.391c0 .616-.504 1.12-1.12 1.12h-3.36c-.616 0-1.12-.504-1.12-1.12v-3.36c0-.616.504-1.12 1.12-1.12h3.36c.616 0 1.12.504 1.12 1.12v3.36Zm0-7.597c0 .616-.504 1.12-1.12 1.12h-3.36c-.616 0-1.12-.504-1.12-1.12v-3.36c0-.616.504-1.12 1.12-1.12h3.36c.616 0 1.12.504 1.12 1.12v3.36Zm0-7.56c0 .616-.504 1.12-1.12 1.12h-3.36c-.616 0-1.12-.504-1.12-1.12v-3.36c0-.616.504-1.12 1.12-1.12h3.36c.616 0 1.12.504 1.12 1.12v3.36Zm0-7.56c0 .616-.504 1.12-1.12 1.12h-3.36c-.616 0-1.12-.504-1.12-1.12V8.21c0-.616.504-1.12 1.12-1.12h3.36c.616 0 1.12.504 1.12 1.12v3.36Z"/></g><defs><radialGradient id="b" cx="0" cy="0" r="1" gradientTransform="matrix(37.99873 -16.00442 10.90246 25.88532 4.502 28.702)" gradientUnits="userSpaceOnUse"><stop stop-color="#FED09C"/><stop offset=".795" stop-color="#FCF1E3"/></radialGradient><clipPath id="a"><path fill="#fff" d="M0 0h42v42H0z" transform="translate(.001)"/></clipPath></defs></svg>