<svg width="42" height="42" viewBox="0 0 42 42" fill="none" xmlns="http://www.w3.org/2000/svg">
<path d="M25.6337 30.3495C24.7472 30.9946 23.9016 31.0381 23.3963 30.9818C22.11 30.838 20.956 29.8683 20.3093 28.388C19.8754 27.3947 19.6446 26.0606 19.905 24.6527C17.861 25.7469 15.2385 28.2311 15.2385 33.7766C15.2385 36.9543 17.8237 39.5394 21.0014 39.5394C24.179 39.5394 26.7642 36.9542 26.7642 33.7766C26.7643 32.535 26.3613 31.334 25.6337 30.3495Z" fill="url(#paint0_radial_97_78)"/>
<path d="M38.1539 23.8505L37.9683 20.5408L35.9479 23.1687C35.787 23.3779 35.4445 23.7479 35.0073 24.0852C35.1995 23.4486 35.343 22.7983 35.4364 22.1399C35.7893 19.6461 35.5695 15.8187 32.5195 11.7464L31.2397 10.0377L30.4012 12.0009C29.4339 14.2655 27.8688 15.4015 26.4142 14.8952C25.2944 14.5056 24.3843 13.224 23.9173 11.3789C23.4817 9.65793 23.2286 6.62951 24.4969 1.97514L25.0348 0L23.0378 0.449858C16.3014 1.96743 11.762 6.75124 9.91034 14.2842C9.13194 17.4507 8.98535 20.4507 9.00717 22.4797C7.41544 21.1929 6.62064 20.0638 6.59989 20.034L5.08371 17.8065L4.39309 20.4146C4.01293 21.853 3.82069 23.3345 3.82117 24.8223C3.82117 34.2247 11.4136 41.8857 20.7895 41.9999C16.3512 41.8871 12.7754 38.2416 12.7754 33.7765C12.7754 28.0206 15.2482 24.9539 17.3226 23.3949C19.5861 21.6938 21.8687 21.3915 21.9648 21.3794L24.8137 21.0224L23.1088 23.3328C22.0344 24.7886 22.1244 26.3894 22.5667 27.4021C22.8867 28.1345 23.3515 28.4983 23.67 28.5339C24.0717 28.5796 24.4758 28.1186 24.6807 27.8404L25.4853 26.7472L26.4954 27.654C28.2316 29.2129 29.2274 31.4446 29.2274 33.7765C29.2274 38.2415 25.6517 41.887 21.2134 41.9999C30.5892 41.8858 38.1817 34.2247 38.1817 24.8223C38.1818 24.5078 38.1724 24.1807 38.1539 23.8505Z" fill="url(#paint1_radial_97_78)"/>
<defs>
<radialGradient id="paint0_radial_97_78" cx="0" cy="0" r="1" gradientUnits="userSpaceOnUse" gradientTransform="translate(7.50343 30.9157) rotate(-33.8818) scale(37.4457 33.0024)">
<stop stop-color="#FED09C"/>
<stop offset="0.795" stop-color="#FCF1E3"/>
</radialGradient>
<radialGradient id="paint1_radial_97_78" cx="0" cy="0" r="1" gradientUnits="userSpaceOnUse" gradientTransform="translate(7.50343 30.9157) rotate(-33.8818) scale(37.4457 33.0024)">
<stop stop-color="#FED09C"/>
<stop offset="0.795" stop-color="#FCF1E3"/>
</radialGradient>
</defs>
</svg>
