<svg xmlns="http://www.w3.org/2000/svg" width="36" height="36" fill="none"><path fill="#F5F5F5" d="M29 19.5v5.73c.008 1.292-.68 2.545-1.76 3.212A18.007 18.007 0 0 1 18 31c-3.247 0-6.436-.883-9.24-2.558-1.08-.667-1.768-1.92-1.76-3.211V19.5l9 4a5.1 5.1 0 0 0 4 0l9-4Z"/><circle cx="33" cy="22" r="2" fill="#F5F5F5"/><path fill="#F5F5F5" d="M31 25a2 2 0 1 1 4 0v2a1 1 0 0 1-1 1h-2a1 1 0 0 1-1-1v-2ZM32 18.5l2-.5v4h-2v-3.5ZM34.619 11.676l-15.148-6.38a3.808 3.808 0 0 0-2.942 0l-15.148 6.38a2.245 2.245 0 0 0 0 4.148l15.148 6.38a3.803 3.803 0 0 0 2.942 0l15.148-6.38a2.245 2.245 0 0 0 0-4.148Z"/></svg>