<?xml version="1.0" encoding="UTF-8"?>
<svg xmlns="http://www.w3.org/2000/svg" width="12" height="14" viewBox="0 0 12 14" fill="none"><path d="M2.03125 5.5V4.28125C2.03125 2.27539 3.65625 0.625 5.6875 0.625C7.69336 0.625 9.34375 2.27539 9.34375 4.28125V5.5H9.75C10.6387 5.5 11.375 6.23633 11.375 7.125V12C11.375 12.9141 10.6387 13.625 9.75 13.625H1.625C0.710938 13.625 0 12.9141 0 12V7.125C0 6.23633 0.710938 5.5 1.625 5.5H2.03125ZM3.65625 5.5H7.71875V4.28125C7.71875 3.16406 6.80469 2.25 5.6875 2.25C4.54492 2.25 3.65625 3.16406 3.65625 4.28125V5.5Z" fill="#4C4C4C"/></svg>