<svg xmlns="http://www.w3.org/2000/svg" width="42" height="42" fill="none"><g clip-path="url(#a)"><path fill="url(#b)" d="M21.002 30.926a6.645 6.645 0 1 0 0-13.29 6.645 6.645 0 0 0 0 13.29Z"/><path fill="url(#c)" d="m30.706 7.465-.425-2.123a2.467 2.467 0 0 0-2.413-1.979H14.135a2.468 2.468 0 0 0-2.413 1.979l-.425 2.123h19.409Zm7.604 2.46H3.693A3.696 3.696 0 0 0 0 13.618v21.328a3.696 3.696 0 0 0 3.692 3.692H38.31a3.696 3.696 0 0 0 3.691-3.692V13.617a3.696 3.696 0 0 0-3.69-3.691Zm-27.809 7.712H6.565a1.23 1.23 0 0 1 0-2.461h3.938a1.23 1.23 0 0 1 0 2.46Zm10.5 15.75c-5.02 0-9.105-4.085-9.105-9.106 0-5.02 4.085-9.105 9.105-9.105 5.021 0 9.106 4.084 9.106 9.105 0 5.021-4.085 9.106-9.105 9.106Z"/></g><defs><radialGradient id="b" cx="0" cy="0" r="1" gradientTransform="rotate(-24.768 69.036 4.411) scale(41.8482 30.3151)" gradientUnits="userSpaceOnUse"><stop stop-color="#FED09C"/><stop offset=".795" stop-color="#FCF1E3"/></radialGradient><radialGradient id="c" cx="0" cy="0" r="1" gradientTransform="rotate(-24.768 69.036 4.411) scale(41.8482 30.3151)" gradientUnits="userSpaceOnUse"><stop stop-color="#FED09C"/><stop offset=".795" stop-color="#FCF1E3"/></radialGradient><clipPath id="a"><path fill="#fff" d="M0 0h42v42H0z" transform="translate(.001)"/></clipPath></defs></svg>