<svg xmlns="http://www.w3.org/2000/svg" width="42" height="42" fill="none"><path fill="url(#a)" d="M41.09 19.236a2.994 2.994 0 0 0 .762-3.087 2.994 2.994 0 0 0-2.432-2.05L29.25 12.62a1.33 1.33 0 0 1-1-.728L23.703 2.68A2.994 2.994 0 0 0 21.002 1a2.994 2.994 0 0 0-2.7 1.679l-4.548 9.215a1.33 1.33 0 0 1-1.002.727L2.582 14.1a2.994 2.994 0 0 0-2.431 2.05 2.994 2.994 0 0 0 .762 3.088l7.358 7.172c.313.306.457.747.383 1.178L6.918 37.714a2.949 2.949 0 0 0 .657 2.443 3.044 3.044 0 0 0 3.713.732l9.095-4.782a1.362 1.362 0 0 1 1.238 0l9.095 4.782c.432.23.913.35 1.401.351a3.02 3.02 0 0 0 2.312-1.083 2.949 2.949 0 0 0 .656-2.443L33.35 27.587a1.331 1.331 0 0 1 .383-1.178l7.358-7.173Z"/><defs><radialGradient id="a" cx="0" cy="0" r="1" gradientTransform="matrix(38.00002 -20.00057 15.69772 29.82484 4.502 30.62)" gradientUnits="userSpaceOnUse"><stop stop-color="#FED09C"/><stop offset=".795" stop-color="#FCF1E3"/></radialGradient></defs></svg>