<svg xmlns="http://www.w3.org/2000/svg" width="42" height="42" fill="none"><path fill="url(#a)" d="M31.916.624A1.23 1.23 0 0 0 30.846 0H16.08a1.23 1.23 0 0 0-1.194.932l-4.921 19.77a1.227 1.227 0 0 0 .653 1.404c.168.082.353.124.54.124h5.607l-6.76 18.107a1.232 1.232 0 0 0 2.148 1.156L31.84 14.34a1.231 1.231 0 0 0-.995-1.953h-5.209L31.9 1.864a1.23 1.23 0 0 0 .016-1.24Z"/><defs><radialGradient id="a" cx="0" cy="0" r="1" gradientTransform="matrix(20.03877 -20.87522 19.85976 19.064 12.3 30.916)" gradientUnits="userSpaceOnUse"><stop stop-color="#FED09C"/><stop offset=".795" stop-color="#FCF1E3"/></radialGradient></defs></svg>