<svg width="36" height="36" viewBox="0 0 36 36" fill="none" xmlns="http://www.w3.org/2000/svg">
<path fill-rule="evenodd" clip-rule="evenodd" d="M17 6C13.6863 6 11 8.68629 11 12V15H10C8.89543 15 8 15.8954 8 17V28C8 29.1046 8.89543 30 10 30H26C27.1046 30 28 29.1046 28 28V17C28 15.8954 27.1046 15 26 15H14V13C14 10.7909 15.7909 9 18 9C19.8638 9 21.4299 10.2748 21.874 12H25C25 8.68629 22.3137 6 19 6H17ZM14 22C14 21.4477 14.4477 21 15 21H21C21.5523 21 22 21.4477 22 22V23C22 23.5523 21.5523 24 21 24H15C14.4477 24 14 23.5523 14 23V22Z" fill="#F5F5F5"/>
</svg>
